<svg width="208" height="157" viewBox="0 0 208 157" fill="none" xmlns="http://www.w3.org/2000/svg">
<g clip-path="url(#clip0_2063_54)">
<g filter="url(#filter0_d_2063_54)">
<path d="M0.235352 7.71594C0.235352 3.29764 3.81705 -0.284058 8.23535 -0.284058H200.235C204.653 -0.284058 208.235 3.29764 208.235 7.71594V37.7159H0.235352V7.71594Z" fill="#7551DC"/>
<path d="M12.6514 23.716L16.7794 12.516H18.6354L22.7314 23.716H20.9394L19.9794 20.98H15.4034L14.4434 23.716H12.6514ZM15.8834 19.636H19.4994L17.6914 14.532L15.8834 19.636ZM26.0254 23.908C25.0654 23.908 24.3081 23.6093 23.7534 23.012C23.2094 22.4147 22.9374 21.524 22.9374 20.34V15.78H24.6334V20.164C24.6334 21.7 25.2627 22.468 26.5214 22.468C27.1507 22.468 27.6681 22.244 28.0734 21.796C28.4787 21.348 28.6814 20.708 28.6814 19.876V15.78H30.3774V23.716H28.8734L28.7454 22.324C28.5001 22.8147 28.1374 23.204 27.6574 23.492C27.1881 23.7693 26.6441 23.908 26.0254 23.908ZM34.8229 21.284C34.4069 21.284 34.0229 21.236 33.6709 21.14L32.9829 21.812C33.1002 21.8867 33.2442 21.9507 33.4149 22.004C33.5856 22.0573 33.8256 22.1053 34.1349 22.148C34.4442 22.1907 34.8656 22.2333 35.3989 22.276C36.4549 22.372 37.2176 22.628 37.6869 23.044C38.1562 23.4493 38.3909 23.9933 38.3909 24.676C38.3909 25.1453 38.2629 25.588 38.0069 26.004C37.7616 26.4307 37.3722 26.772 36.8389 27.028C36.3162 27.2947 35.6442 27.428 34.8229 27.428C33.7136 27.428 32.8122 27.2147 32.1189 26.788C31.4362 26.372 31.0949 25.7373 31.0949 24.884C31.0949 24.5533 31.1802 24.2227 31.3509 23.892C31.5322 23.572 31.8149 23.268 32.1989 22.98C31.9749 22.884 31.7776 22.7827 31.6069 22.676C31.4469 22.5587 31.3029 22.4413 31.1749 22.324V21.94L32.5509 20.532C31.9322 19.9987 31.6229 19.3 31.6229 18.436C31.6229 17.9133 31.7456 17.4387 31.9909 17.012C32.2469 16.5747 32.6149 16.228 33.0949 15.972C33.5749 15.716 34.1509 15.588 34.8229 15.588C35.2709 15.588 35.6869 15.652 36.0709 15.78H39.0309V16.9L37.6229 16.98C37.8789 17.4173 38.0069 17.9027 38.0069 18.436C38.0069 18.9693 37.8789 19.4493 37.6229 19.876C37.3776 20.3027 37.0149 20.644 36.5349 20.9C36.0656 21.156 35.4949 21.284 34.8229 21.284ZM34.8229 19.956C35.3136 19.956 35.7082 19.828 36.0069 19.572C36.3162 19.3053 36.4709 18.932 36.4709 18.452C36.4709 17.9613 36.3162 17.588 36.0069 17.332C35.7082 17.076 35.3136 16.948 34.8229 16.948C34.3216 16.948 33.9162 17.076 33.6069 17.332C33.3082 17.588 33.1589 17.9613 33.1589 18.452C33.1589 18.932 33.3082 19.3053 33.6069 19.572C33.9162 19.828 34.3216 19.956 34.8229 19.956ZM32.6949 24.724C32.6949 25.1827 32.8976 25.524 33.3029 25.748C33.7082 25.9827 34.2149 26.1 34.8229 26.1C35.4096 26.1 35.8842 25.972 36.2469 25.716C36.6096 25.4707 36.7909 25.14 36.7909 24.724C36.7909 24.4147 36.6682 24.148 36.4229 23.924C36.1776 23.7107 35.7136 23.5773 35.0309 23.524C34.5189 23.492 34.0656 23.444 33.6709 23.38C33.2976 23.5827 33.0416 23.8013 32.9029 24.036C32.7642 24.2707 32.6949 24.5 32.6949 24.724ZM42.5117 23.908C41.5517 23.908 40.7943 23.6093 40.2397 23.012C39.6957 22.4147 39.4237 21.524 39.4237 20.34V15.78H41.1197V20.164C41.1197 21.7 41.749 22.468 43.0077 22.468C43.637 22.468 44.1543 22.244 44.5597 21.796C44.965 21.348 45.1677 20.708 45.1677 19.876V15.78H46.8637V23.716H45.3597L45.2317 22.324C44.9863 22.8147 44.6237 23.204 44.1437 23.492C43.6743 23.7693 43.1303 23.908 42.5117 23.908ZM51.2292 23.908C50.2265 23.908 49.3998 23.6627 48.7491 23.172C48.0985 22.6813 47.7251 22.0307 47.6291 21.22H49.3411C49.4265 21.5827 49.6291 21.8973 49.9491 22.164C50.2691 22.42 50.6905 22.548 51.2131 22.548C51.7251 22.548 52.0985 22.4413 52.3332 22.228C52.5678 22.0147 52.6851 21.7693 52.6851 21.492C52.6851 21.0867 52.5198 20.8147 52.1892 20.676C51.8692 20.5267 51.4212 20.3933 50.8452 20.276C50.3972 20.18 49.9492 20.052 49.5011 19.892C49.0638 19.732 48.6958 19.508 48.3971 19.22C48.1091 18.9213 47.9651 18.5213 47.9651 18.02C47.9651 17.3267 48.2318 16.7507 48.7651 16.292C49.2985 15.8227 50.0452 15.588 51.0052 15.588C51.8905 15.588 52.6052 15.8013 53.1492 16.228C53.7038 16.6547 54.0291 17.2573 54.1252 18.036H52.4932C52.4398 17.6947 52.2798 17.428 52.0132 17.236C51.7572 17.044 51.4105 16.948 50.9732 16.948C50.5465 16.948 50.2158 17.0387 49.9811 17.22C49.7465 17.3907 49.6291 17.6147 49.6291 17.892C49.6291 18.1693 49.7891 18.388 50.1091 18.548C50.4398 18.708 50.8718 18.852 51.4052 18.98C51.9385 19.0973 52.4292 19.236 52.8772 19.396C53.3358 19.5453 53.7038 19.7693 53.9811 20.068C54.2585 20.3667 54.3972 20.804 54.3972 21.38C54.4078 22.1053 54.1252 22.708 53.5492 23.188C52.9838 23.668 52.2105 23.908 51.2292 23.908ZM58.3198 23.716C57.5411 23.716 56.9224 23.5293 56.4638 23.156C56.0051 22.772 55.7758 22.0947 55.7758 21.124V17.204H54.4158V15.78H55.7758L55.9838 13.764H57.4718V15.78H59.7118V17.204H57.4718V21.124C57.4718 21.5613 57.5624 21.8653 57.7438 22.036C57.9358 22.196 58.2611 22.276 58.7198 22.276H59.6318V23.716H58.3198ZM63.4118 23.716V22.5C64.1371 21.924 64.8304 21.3427 65.4914 20.756C66.153 20.1693 66.739 19.5933 67.251 19.028C67.774 18.452 68.185 17.892 68.483 17.348C68.782 16.7933 68.931 16.26 68.931 15.748C68.931 15.4067 68.873 15.0867 68.755 14.788C68.638 14.4787 68.446 14.2333 68.179 14.052C67.913 13.86 67.555 13.764 67.107 13.764C66.435 13.764 65.9294 13.9773 65.5874 14.404C65.2574 14.8307 65.0971 15.3427 65.1078 15.94H63.4598C63.4704 15.1507 63.6358 14.4893 63.9558 13.956C64.2864 13.4227 64.7238 13.0173 65.2674 12.74C65.8224 12.4627 66.446 12.324 67.139 12.324C68.195 12.324 69.038 12.6227 69.667 13.22C70.307 13.8067 70.627 14.628 70.627 15.684C70.627 16.3133 70.473 16.9373 70.163 17.556C69.865 18.1747 69.47 18.772 68.979 19.348C68.499 19.9133 67.982 20.4467 67.427 20.948C66.873 21.4493 66.345 21.9027 65.8434 22.308H70.963V23.716H63.4118ZM76.187 23.908C75.173 23.908 74.299 23.668 73.563 23.188C72.837 22.6973 72.277 22.02 71.883 21.156C71.499 20.2813 71.307 19.268 71.307 18.116C71.307 16.964 71.499 15.956 71.883 15.092C72.277 14.2173 72.837 13.54 73.563 13.06C74.299 12.5693 75.173 12.324 76.187 12.324C77.2 12.324 78.069 12.5693 78.795 13.06C79.52 13.54 80.075 14.2173 80.459 15.092C80.853 15.956 81.051 16.964 81.051 18.116C81.051 19.268 80.853 20.2813 80.459 21.156C80.075 22.02 79.52 22.6973 78.795 23.188C78.069 23.668 77.2 23.908 76.187 23.908ZM76.187 22.388C76.795 22.388 77.333 22.2173 77.803 21.876C78.283 21.5347 78.656 21.044 78.923 20.404C79.189 19.764 79.323 19.0013 79.323 18.116C79.323 17.2307 79.189 16.468 78.923 15.828C78.656 15.188 78.283 14.6973 77.803 14.356C77.333 14.0147 76.795 13.844 76.187 13.844C75.568 13.844 75.024 14.0147 74.555 14.356C74.085 14.6973 73.717 15.188 73.451 15.828C73.184 16.468 73.051 17.2307 73.051 18.116C73.051 19.0013 73.184 19.764 73.451 20.404C73.717 21.044 74.085 21.5347 74.555 21.876C75.024 22.2173 75.568 22.388 76.187 22.388ZM81.632 23.716V22.5C82.357 21.924 83.051 21.3427 83.712 20.756C84.373 20.1693 84.96 19.5933 85.472 19.028C85.995 18.452 86.405 17.892 86.704 17.348C87.003 16.7933 87.152 16.26 87.152 15.748C87.152 15.4067 87.093 15.0867 86.976 14.788C86.859 14.4787 86.667 14.2333 86.4 14.052C86.133 13.86 85.776 13.764 85.328 13.764C84.656 13.764 84.149 13.9773 83.808 14.404C83.477 14.8307 83.317 15.3427 83.328 15.94H81.68C81.691 15.1507 81.856 14.4893 82.176 13.956C82.507 13.4227 82.944 13.0173 83.488 12.74C84.043 12.4627 84.667 12.324 85.36 12.324C86.416 12.324 87.259 12.6227 87.888 13.22C88.528 13.8067 88.848 14.628 88.848 15.684C88.848 16.3133 88.693 16.9373 88.384 17.556C88.085 18.1747 87.691 18.772 87.2 19.348C86.72 19.9133 86.203 20.4467 85.648 20.948C85.093 21.4493 84.565 21.9027 84.064 22.308H89.184V23.716H81.632ZM94.953 23.716V21.476H89.337V20.132L94.681 12.516H96.633V20.004H98.201V21.476H96.633V23.716H94.953ZM91.177 20.004H95.049V14.388L91.177 20.004Z" fill="white"/>
<path d="M148.231 23.23L145.585 13.416H147.181L149.127 21.536L151.367 13.416H153.005L155.175 21.536L157.121 13.416H158.717L156.029 23.216H154.293L152.151 15.53L149.939 23.216L148.231 23.23ZM161.706 23.384C161.025 23.384 160.418 23.2347 159.886 22.936C159.363 22.628 158.953 22.2033 158.654 21.662C158.355 21.1207 158.206 20.4907 158.206 19.772C158.206 19.044 158.351 18.4047 158.64 17.854C158.939 17.3033 159.349 16.874 159.872 16.566C160.404 16.258 161.02 16.104 161.72 16.104C162.401 16.104 162.994 16.258 163.498 16.566C164.002 16.8647 164.394 17.266 164.674 17.77C164.954 18.274 165.094 18.8293 165.094 19.436C165.094 19.5293 165.089 19.632 165.08 19.744C165.08 19.8467 165.075 19.9633 165.066 20.094H159.662C159.709 20.766 159.928 21.2793 160.32 21.634C160.721 21.9793 161.183 22.152 161.706 22.152C162.126 22.152 162.476 22.0587 162.756 21.872C163.045 21.676 163.26 21.4147 163.4 21.088H164.884C164.697 21.7413 164.324 22.2873 163.764 22.726C163.213 23.1647 162.527 23.384 161.706 23.384ZM161.706 17.322C161.211 17.322 160.773 17.4713 160.39 17.77C160.007 18.0593 159.774 18.498 159.69 19.086H163.61C163.582 18.5447 163.391 18.1153 163.036 17.798C162.681 17.4807 162.238 17.322 161.706 17.322ZM169.042 23.384C168.36 23.384 167.754 23.2347 167.222 22.936C166.699 22.628 166.288 22.2033 165.99 21.662C165.691 21.1207 165.542 20.4907 165.542 19.772C165.542 19.044 165.686 18.4047 165.976 17.854C166.274 17.3033 166.685 16.874 167.208 16.566C167.74 16.258 168.356 16.104 169.056 16.104C169.737 16.104 170.33 16.258 170.834 16.566C171.338 16.8647 171.73 17.266 172.01 17.77C172.29 18.274 172.43 18.8293 172.43 19.436C172.43 19.5293 172.425 19.632 172.416 19.744C172.416 19.8467 172.411 19.9633 172.402 20.094H166.998C167.044 20.766 167.264 21.2793 167.656 21.634C168.057 21.9793 168.519 22.152 169.042 22.152C169.462 22.152 169.812 22.0587 170.092 21.872C170.381 21.676 170.596 21.4147 170.736 21.088H172.22C172.033 21.7413 171.66 22.2873 171.1 22.726C170.549 23.1647 169.863 23.384 169.042 23.384ZM169.042 17.322C168.547 17.322 168.108 17.4713 167.726 17.77C167.343 18.0593 167.11 18.498 167.026 19.086H170.946C170.918 18.5447 170.726 18.1153 170.372 17.798C170.017 17.4807 169.574 17.322 169.042 17.322ZM173.13 23.216V13.136H174.614V19.142L177.274 16.272H179.052L176.098 19.422L179.486 23.216H177.61L174.614 19.66V23.216H173.13ZM180.859 23.216V15.096L179.277 15.46V14.368L181.447 13.416H182.399V23.216H180.859Z" fill="white"/>
</g>
<path d="M208.235 37.7159H0.235352V156.716H208.235V37.7159Z" fill="white"/>
<path d="M28.2354 55.9659C26.307 55.9659 24.422 56.5377 22.8186 57.6091C21.2152 58.6804 19.9655 60.2032 19.2276 61.9847C18.4896 63.7663 18.2965 65.7267 18.6727 67.618C19.049 69.5093 19.9776 71.2466 21.3411 72.6102C22.7047 73.9738 24.442 74.9024 26.3333 75.2786C28.2246 75.6548 30.185 75.4617 31.9666 74.7237C33.7481 73.9858 35.2709 72.7361 36.3422 71.1327C37.4136 69.5293 37.9854 67.6443 37.9854 65.7159C37.9827 63.1309 36.9546 60.6525 35.1267 58.8246C33.2988 56.9967 30.8204 55.9686 28.2354 55.9659ZM32.516 63.9965L27.266 69.2465C27.1964 69.3163 27.1137 69.3716 27.0226 69.4093C26.9316 69.4471 26.834 69.4665 26.7354 69.4665C26.6368 69.4665 26.5392 69.4471 26.4482 69.4093C26.3572 69.3716 26.2744 69.3163 26.2048 69.2465L23.9548 66.9965C23.814 66.8558 23.735 66.6649 23.735 66.4659C23.735 66.2669 23.814 66.076 23.9548 65.9353C24.0955 65.7945 24.2864 65.7155 24.4854 65.7155C24.6844 65.7155 24.8753 65.7945 25.016 65.9353L26.7354 67.6556L31.4548 62.9353C31.5245 62.8656 31.6072 62.8103 31.6982 62.7726C31.7893 62.7349 31.8869 62.7155 31.9854 62.7155C32.084 62.7155 32.1815 62.7349 32.2726 62.7726C32.3636 62.8103 32.4463 62.8656 32.516 62.9353C32.5857 63.005 32.641 63.0877 32.6787 63.1787C32.7164 63.2698 32.7358 63.3674 32.7358 63.4659C32.7358 63.5644 32.7164 63.662 32.6787 63.7531C32.641 63.8441 32.5857 63.9268 32.516 63.9965Z" fill="#7551DC"/>
<path d="M78.9026 55.9659C76.9746 55.9659 75.0896 56.5377 73.4856 57.6091C71.8826 58.6804 70.6326 60.2032 69.8946 61.9847C69.1566 63.7663 68.9636 65.7267 69.3396 67.618C69.7166 69.5093 70.6446 71.2466 72.0086 72.6102C73.3716 73.9738 75.1096 74.9024 77.0006 75.2786C78.8916 75.6548 80.8526 75.4617 82.6336 74.7237C84.4156 73.9858 85.9376 72.7361 87.0096 71.1327C88.0806 69.5293 88.6526 67.6443 88.6526 65.7159C88.6496 63.1309 87.6216 60.6525 85.7936 58.8246C83.9656 56.9967 81.4876 55.9686 78.9026 55.9659ZM83.1836 63.9965L77.9336 69.2465C77.8636 69.3163 77.7806 69.3716 77.6896 69.4093C77.5986 69.4471 77.5016 69.4665 77.4026 69.4665C77.3036 69.4665 77.2066 69.4471 77.1156 69.4093C77.0246 69.3716 76.9416 69.3163 76.8716 69.2465L74.6216 66.9965C74.4816 66.8558 74.4026 66.6649 74.4026 66.4659C74.4026 66.2669 74.4816 66.076 74.6216 65.9353C74.7626 65.7945 74.9536 65.7155 75.1526 65.7155C75.3516 65.7155 75.5426 65.7945 75.6836 65.9353L77.4026 67.6556L82.1216 62.9353C82.1916 62.8656 82.2746 62.8103 82.3656 62.7726C82.4566 62.7349 82.5536 62.7155 82.6526 62.7155C82.7516 62.7155 82.8486 62.7349 82.9396 62.7726C83.0306 62.8103 83.1136 62.8656 83.1836 62.9353C83.2526 63.005 83.3086 63.0877 83.3456 63.1787C83.3836 63.2698 83.4026 63.3674 83.4026 63.4659C83.4026 63.5644 83.3836 63.662 83.3456 63.7531C83.3086 63.8441 83.2526 63.9268 83.1836 63.9965Z" fill="#7551DC"/>
<path d="M129.569 55.9659C127.641 55.9659 125.756 56.5377 124.152 57.6091C122.549 58.6804 121.299 60.2032 120.561 61.9847C119.823 63.7663 119.63 65.7267 120.006 67.618C120.383 69.5093 121.311 71.2466 122.675 72.6102C124.038 73.9738 125.776 74.9024 127.667 75.2786C129.558 75.6548 131.519 75.4617 133.3 74.7237C135.082 73.9858 136.604 72.7361 137.676 71.1327C138.747 69.5293 139.319 67.6443 139.319 65.7159C139.316 63.1309 138.288 60.6525 136.46 58.8246C134.632 56.9967 132.154 55.9686 129.569 55.9659ZM133.85 63.9965L128.6 69.2465C128.53 69.3163 128.447 69.3716 128.356 69.4093C128.265 69.4471 128.168 69.4665 128.069 69.4665C127.97 69.4665 127.873 69.4471 127.782 69.4093C127.691 69.3716 127.608 69.3163 127.538 69.2465L125.288 66.9965C125.148 66.8558 125.069 66.6649 125.069 66.4659C125.069 66.2669 125.148 66.076 125.288 65.9353C125.429 65.7945 125.62 65.7155 125.819 65.7155C126.018 65.7155 126.209 65.7945 126.35 65.9353L128.069 67.6556L132.788 62.9353C132.858 62.8656 132.941 62.8103 133.032 62.7726C133.123 62.7349 133.22 62.7155 133.319 62.7155C133.418 62.7155 133.515 62.7349 133.606 62.7726C133.697 62.8103 133.78 62.8656 133.85 62.9353C133.919 63.005 133.975 63.0877 134.012 63.1787C134.05 63.2698 134.069 63.3674 134.069 63.4659C134.069 63.5644 134.05 63.662 134.012 63.7531C133.975 63.8441 133.919 63.9268 133.85 63.9965Z" fill="#7551DC"/>
<path d="M180.236 55.9659C178.308 55.9659 176.423 56.5377 174.819 57.6091C173.216 58.6804 171.966 60.2032 171.228 61.9847C170.49 63.7663 170.297 65.7267 170.673 67.618C171.05 69.5093 171.978 71.2466 173.342 72.6102C174.705 73.9738 176.443 74.9024 178.334 75.2786C180.225 75.6548 182.186 75.4617 183.967 74.7237C185.749 73.9858 187.271 72.7361 188.343 71.1327C189.414 69.5293 189.986 67.6443 189.986 65.7159C189.983 63.1309 188.955 60.6525 187.127 58.8246C185.299 56.9967 182.821 55.9686 180.236 55.9659ZM184.517 63.9965L179.267 69.2465C179.197 69.3163 179.114 69.3716 179.023 69.4093C178.932 69.4471 178.835 69.4665 178.736 69.4665C178.637 69.4665 178.54 69.4471 178.449 69.4093C178.358 69.3716 178.275 69.3163 178.205 69.2465L175.955 66.9965C175.815 66.8558 175.736 66.6649 175.736 66.4659C175.736 66.2669 175.815 66.076 175.955 65.9353C176.096 65.7945 176.287 65.7155 176.486 65.7155C176.685 65.7155 176.876 65.7945 177.017 65.9353L178.736 67.6556L183.455 62.9353C183.525 62.8656 183.608 62.8103 183.699 62.7726C183.79 62.7349 183.887 62.7155 183.986 62.7155C184.085 62.7155 184.182 62.7349 184.273 62.7726C184.364 62.8103 184.447 62.8656 184.517 62.9353C184.586 63.005 184.642 63.0877 184.679 63.1787C184.717 63.2698 184.736 63.3674 184.736 63.4659C184.736 63.5644 184.717 63.662 184.679 63.7531C184.642 63.8441 184.586 63.9268 184.517 63.9965Z" fill="#7551DC"/>
<path d="M35.2353 93.7161H20.2354C18.0262 93.7161 16.2354 95.5071 16.2354 97.7161V112.716C16.2354 114.925 18.0262 116.716 20.2354 116.716H35.2353C37.4444 116.716 39.2353 114.925 39.2353 112.716V97.7161C39.2353 95.5071 37.4444 93.7161 35.2353 93.7161Z" fill="#FCEBD1"/>
<path d="M86.2354 93.7161H71.2354C69.0264 93.7161 67.2354 95.5071 67.2354 97.7161V112.716C67.2354 114.925 69.0264 116.716 71.2354 116.716H86.2354C88.4444 116.716 90.2354 114.925 90.2354 112.716V97.7161C90.2354 95.5071 88.4444 93.7161 86.2354 93.7161Z" fill="#FCEBD1"/>
<path d="M137.235 93.7161H122.235C120.026 93.7161 118.235 95.5071 118.235 97.7161V112.716C118.235 114.925 120.026 116.716 122.235 116.716H137.235C139.444 116.716 141.235 114.925 141.235 112.716V97.7161C141.235 95.5071 139.444 93.7161 137.235 93.7161Z" fill="#FCEBD1"/>
<path d="M188.235 93.7161H173.235C171.026 93.7161 169.235 95.5071 169.235 97.7161V112.716C169.235 114.925 171.026 116.716 173.235 116.716H188.235C190.444 116.716 192.235 114.925 192.235 112.716V97.7161C192.235 95.5071 190.444 93.7161 188.235 93.7161Z" fill="#FCEBD1"/>
<path d="M35.2353 132.716H20.2354C18.0262 132.716 16.2354 134.507 16.2354 136.716V151.716C16.2354 153.925 18.0262 155.716 20.2354 155.716H35.2353C37.4444 155.716 39.2353 153.925 39.2353 151.716V136.716C39.2353 134.507 37.4444 132.716 35.2353 132.716Z" fill="#FCEBD1"/>
<path d="M86.2354 132.716H71.2354C69.0264 132.716 67.2354 134.507 67.2354 136.716V151.716C67.2354 153.925 69.0264 155.716 71.2354 155.716H86.2354C88.4444 155.716 90.2354 153.925 90.2354 151.716V136.716C90.2354 134.507 88.4444 132.716 86.2354 132.716Z" fill="#FCEBD1"/>
<path d="M137.235 132.716H122.235C120.026 132.716 118.235 134.507 118.235 136.716V151.716C118.235 153.925 120.026 155.716 122.235 155.716H137.235C139.444 155.716 141.235 153.925 141.235 151.716V136.716C141.235 134.507 139.444 132.716 137.235 132.716Z" fill="#FCEBD1"/>
<path d="M188.235 132.716H173.235C171.026 132.716 169.235 134.507 169.235 136.716V151.716C169.235 153.925 171.026 155.716 173.235 155.716H188.235C190.444 155.716 192.235 153.925 192.235 151.716V136.716C192.235 134.507 190.444 132.716 188.235 132.716Z" fill="#FCEBD1"/>
</g>
<defs>
<filter id="filter0_d_2063_54" x="-33.9997" y="-13" width="256.907" height="86.9072" filterUnits="userSpaceOnUse" color-interpolation-filters="sRGB">
<feFlood flood-opacity="0" result="BackgroundImageFix"/>
<feColorMatrix in="SourceAlpha" type="matrix" values="0 0 0 0 0 0 0 0 0 0 0 0 0 0 0 0 0 0 127 0" result="hardAlpha"/>
<feOffset dx="-9.78145" dy="11.7377"/>
<feGaussianBlur stdDeviation="12.2268"/>
<feComposite in2="hardAlpha" operator="out"/>
<feColorMatrix type="matrix" values="0 0 0 0 0.384371 0 0 0 0 0.102708 0 0 0 0 0.483333 0 0 0 0.05 0"/>
<feBlend mode="normal" in2="BackgroundImageFix" result="effect1_dropShadow_2063_54"/>
<feBlend mode="normal" in="SourceGraphic" in2="effect1_dropShadow_2063_54" result="shape"/>
</filter>
<clipPath id="clip0_2063_54">
<rect width="208" height="157" fill="white"/>
</clipPath>
</defs>
</svg>
