<svg width="239" height="149" viewBox="0 0 239 149" fill="none" xmlns="http://www.w3.org/2000/svg">
<g filter="url(#filter0_d_2051_34)">
<path d="M16 20.7159C16 16.2976 19.5817 12.7159 24 12.7159H216C220.418 12.7159 224 16.2976 224 20.7159V50.7159H16V20.7159Z" fill="#7551DC"/>
<path d="M28.416 36.7159L32.544 25.5159H34.4L38.496 36.7159H36.704L35.744 33.9799H31.168L30.208 36.7159H28.416ZM31.648 32.6359H35.264L33.456 27.5319L31.648 32.6359ZM41.79 36.9079C40.83 36.9079 40.0727 36.6092 39.518 36.0119C38.974 35.4146 38.702 34.5239 38.702 33.3399V28.7799H40.398V33.1639C40.398 34.6999 41.0273 35.4679 42.286 35.4679C42.9153 35.4679 43.4327 35.2439 43.838 34.7959C44.2433 34.3479 44.446 33.7079 44.446 32.8759V28.7799H46.142V36.7159H44.638L44.51 35.3239C44.2647 35.8146 43.902 36.2039 43.422 36.4919C42.9527 36.7692 42.4087 36.9079 41.79 36.9079ZM50.5875 34.2839C50.1715 34.2839 49.7875 34.2359 49.4355 34.1399L48.7475 34.8119C48.8648 34.8866 49.0088 34.9506 49.1795 35.0039C49.3502 35.0572 49.5902 35.1052 49.8995 35.1479C50.2088 35.1906 50.6302 35.2332 51.1635 35.2759C52.2195 35.3719 52.9822 35.6279 53.4515 36.0439C53.9208 36.4492 54.1555 36.9932 54.1555 37.6759C54.1555 38.1452 54.0275 38.5879 53.7715 39.0039C53.5262 39.4306 53.1368 39.7719 52.6035 40.0279C52.0808 40.2946 51.4088 40.4279 50.5875 40.4279C49.4782 40.4279 48.5768 40.2146 47.8835 39.7879C47.2008 39.3719 46.8595 38.7372 46.8595 37.8839C46.8595 37.5532 46.9448 37.2226 47.1155 36.8919C47.2968 36.5719 47.5795 36.2679 47.9635 35.9799C47.7395 35.8839 47.5422 35.7826 47.3715 35.6759C47.2115 35.5586 47.0675 35.4412 46.9395 35.3239V34.9399L48.3155 33.5319C47.6968 32.9986 47.3875 32.2999 47.3875 31.4359C47.3875 30.9132 47.5102 30.4386 47.7555 30.0119C48.0115 29.5746 48.3795 29.2279 48.8595 28.9719C49.3395 28.7159 49.9155 28.5879 50.5875 28.5879C51.0355 28.5879 51.4515 28.6519 51.8355 28.7799H54.7955V29.8999L53.3875 29.9799C53.6435 30.4172 53.7715 30.9026 53.7715 31.4359C53.7715 31.9692 53.6435 32.4492 53.3875 32.8759C53.1422 33.3026 52.7795 33.6439 52.2995 33.8999C51.8302 34.1559 51.2595 34.2839 50.5875 34.2839ZM50.5875 32.9559C51.0782 32.9559 51.4728 32.8279 51.7715 32.5719C52.0808 32.3052 52.2355 31.9319 52.2355 31.4519C52.2355 30.9612 52.0808 30.5879 51.7715 30.3319C51.4728 30.0759 51.0782 29.9479 50.5875 29.9479C50.0862 29.9479 49.6808 30.0759 49.3715 30.3319C49.0728 30.5879 48.9235 30.9612 48.9235 31.4519C48.9235 31.9319 49.0728 32.3052 49.3715 32.5719C49.6808 32.8279 50.0862 32.9559 50.5875 32.9559ZM48.4595 37.7239C48.4595 38.1826 48.6622 38.5239 49.0675 38.7479C49.4728 38.9826 49.9795 39.0999 50.5875 39.0999C51.1742 39.0999 51.6488 38.9719 52.0115 38.7159C52.3742 38.4706 52.5555 38.1399 52.5555 37.7239C52.5555 37.4146 52.4328 37.1479 52.1875 36.9239C51.9422 36.7106 51.4782 36.5772 50.7955 36.5239C50.2835 36.4919 49.8302 36.4439 49.4355 36.3799C49.0622 36.5826 48.8062 36.8012 48.6675 37.0359C48.5288 37.2706 48.4595 37.4999 48.4595 37.7239ZM58.2763 36.9079C57.3163 36.9079 56.5589 36.6092 56.0043 36.0119C55.4603 35.4146 55.1883 34.5239 55.1883 33.3399V28.7799H56.8843V33.1639C56.8843 34.6999 57.5136 35.4679 58.7723 35.4679C59.4016 35.4679 59.9189 35.2439 60.3243 34.7959C60.7296 34.3479 60.9323 33.7079 60.9323 32.8759V28.7799H62.6283V36.7159H61.1243L60.9963 35.3239C60.7509 35.8146 60.3883 36.2039 59.9083 36.4919C59.4389 36.7692 58.8949 36.9079 58.2763 36.9079ZM66.9938 36.9079C65.9911 36.9079 65.1644 36.6626 64.5137 36.1719C63.8631 35.6812 63.4897 35.0306 63.3937 34.2199H65.1057C65.1911 34.5826 65.3937 34.8972 65.7137 35.1639C66.0337 35.4199 66.4551 35.5479 66.9777 35.5479C67.4897 35.5479 67.8631 35.4412 68.0978 35.2279C68.3324 35.0146 68.4497 34.7692 68.4497 34.4919C68.4497 34.0866 68.2844 33.8146 67.9538 33.6759C67.6338 33.5266 67.1858 33.3932 66.6098 33.2759C66.1618 33.1799 65.7138 33.0519 65.2657 32.8919C64.8284 32.7319 64.4604 32.5079 64.1617 32.2199C63.8737 31.9212 63.7297 31.5212 63.7297 31.0199C63.7297 30.3266 63.9964 29.7506 64.5297 29.2919C65.0631 28.8226 65.8098 28.5879 66.7698 28.5879C67.6551 28.5879 68.3698 28.8012 68.9138 29.2279C69.4684 29.6546 69.7937 30.2572 69.8898 31.0359H68.2578C68.2044 30.6946 68.0444 30.4279 67.7778 30.2359C67.5218 30.0439 67.1751 29.9479 66.7378 29.9479C66.3111 29.9479 65.9804 30.0386 65.7457 30.2199C65.5111 30.3906 65.3937 30.6146 65.3937 30.8919C65.3937 31.1692 65.5537 31.3879 65.8737 31.5479C66.2044 31.7079 66.6364 31.8519 67.1698 31.9799C67.7031 32.0972 68.1938 32.2359 68.6418 32.3959C69.1004 32.5452 69.4684 32.7692 69.7457 33.0679C70.0231 33.3666 70.1618 33.8039 70.1618 34.3799C70.1724 35.1052 69.8898 35.7079 69.3138 36.1879C68.7484 36.6679 67.9751 36.9079 66.9938 36.9079ZM74.0844 36.7159C73.3057 36.7159 72.687 36.5292 72.2284 36.1559C71.7697 35.7719 71.5404 35.0946 71.5404 34.1239V30.2039H70.1804V28.7799H71.5404L71.7484 26.7639H73.2364V28.7799H75.4764V30.2039H73.2364V34.1239C73.2364 34.5612 73.327 34.8652 73.5084 35.0359C73.7004 35.1959 74.0257 35.2759 74.4844 35.2759H75.3964V36.7159H74.0844ZM79.1764 36.7159V35.4999C79.9017 34.9239 80.595 34.3426 81.256 33.7559C81.918 33.1692 82.504 32.5932 83.016 32.0279C83.539 31.4519 83.95 30.8919 84.248 30.3479C84.547 29.7932 84.696 29.2599 84.696 28.7479C84.696 28.4066 84.638 28.0866 84.52 27.7879C84.403 27.4786 84.211 27.2332 83.944 27.0519C83.678 26.8599 83.32 26.7639 82.872 26.7639C82.2 26.7639 81.694 26.9772 81.352 27.4039C81.022 27.8306 80.8617 28.3426 80.8724 28.9399H79.2244C79.235 28.1506 79.4004 27.4892 79.7204 26.9559C80.051 26.4226 80.4884 26.0172 81.032 25.7399C81.587 25.4626 82.211 25.3239 82.904 25.3239C83.96 25.3239 84.803 25.6226 85.432 26.2199C86.072 26.8066 86.392 27.6279 86.392 28.6839C86.392 29.3132 86.238 29.9372 85.928 30.5559C85.63 31.1746 85.235 31.7719 84.744 32.3479C84.264 32.9132 83.747 33.4466 83.192 33.9479C82.638 34.4492 82.11 34.9026 81.608 35.3079H86.728V36.7159H79.1764ZM91.952 36.9079C90.938 36.9079 90.064 36.6679 89.328 36.1879C88.602 35.6972 88.042 35.0199 87.648 34.1559C87.264 33.2812 87.072 32.2679 87.072 31.1159C87.072 29.9639 87.264 28.9559 87.648 28.0919C88.042 27.2172 88.602 26.5399 89.328 26.0599C90.064 25.5692 90.938 25.3239 91.952 25.3239C92.965 25.3239 93.834 25.5692 94.56 26.0599C95.285 26.5399 95.84 27.2172 96.224 28.0919C96.618 28.9559 96.816 29.9639 96.816 31.1159C96.816 32.2679 96.618 33.2812 96.224 34.1559C95.84 35.0199 95.285 35.6972 94.56 36.1879C93.834 36.6679 92.965 36.9079 91.952 36.9079ZM91.952 35.3879C92.56 35.3879 93.098 35.2172 93.568 34.8759C94.048 34.5346 94.421 34.0439 94.688 33.4039C94.954 32.7639 95.088 32.0012 95.088 31.1159C95.088 30.2306 94.954 29.4679 94.688 28.8279C94.421 28.1879 94.048 27.6972 93.568 27.3559C93.098 27.0146 92.56 26.8439 91.952 26.8439C91.333 26.8439 90.789 27.0146 90.32 27.3559C89.85 27.6972 89.482 28.1879 89.216 28.8279C88.949 29.4679 88.816 30.2306 88.816 31.1159C88.816 32.0012 88.949 32.7639 89.216 33.4039C89.482 34.0439 89.85 34.5346 90.32 34.8759C90.789 35.2172 91.333 35.3879 91.952 35.3879ZM97.397 36.7159V35.4999C98.122 34.9239 98.816 34.3426 99.477 33.7559C100.138 33.1692 100.725 32.5932 101.237 32.0279C101.76 31.4519 102.17 30.8919 102.469 30.3479C102.768 29.7932 102.917 29.2599 102.917 28.7479C102.917 28.4066 102.858 28.0866 102.741 27.7879C102.624 27.4786 102.432 27.2332 102.165 27.0519C101.898 26.8599 101.541 26.7639 101.093 26.7639C100.421 26.7639 99.914 26.9772 99.573 27.4039C99.242 27.8306 99.082 28.3426 99.093 28.9399H97.445C97.456 28.1506 97.621 27.4892 97.941 26.9559C98.272 26.4226 98.709 26.0172 99.253 25.7399C99.808 25.4626 100.432 25.3239 101.125 25.3239C102.181 25.3239 103.024 25.6226 103.653 26.2199C104.293 26.8066 104.613 27.6279 104.613 28.6839C104.613 29.3132 104.458 29.9372 104.149 30.5559C103.85 31.1746 103.456 31.7719 102.965 32.3479C102.485 32.9132 101.968 33.4466 101.413 33.9479C100.858 34.4492 100.33 34.9026 99.829 35.3079H104.949V36.7159H97.397ZM110.718 36.7159V34.4759H105.102V33.1319L110.446 25.5159H112.398V33.0039H113.966V34.4759H112.398V36.7159H110.718ZM106.942 33.0039H110.814V27.3879L106.942 33.0039Z" fill="white"/>
<path d="M163.996 36.2299L161.35 26.4159H162.946L164.892 34.5359L167.132 26.4159H168.77L170.94 34.5359L172.886 26.4159H174.482L171.794 36.2159H170.058L167.916 28.5299L165.704 36.2159L163.996 36.2299ZM177.471 36.3839C176.79 36.3839 176.183 36.2346 175.651 35.9359C175.128 35.6279 174.718 35.2032 174.419 34.6619C174.12 34.1206 173.971 33.4906 173.971 32.7719C173.971 32.0439 174.116 31.4046 174.405 30.8539C174.704 30.3032 175.114 29.8739 175.637 29.5659C176.169 29.2579 176.785 29.1039 177.485 29.1039C178.166 29.1039 178.759 29.2579 179.263 29.5659C179.767 29.8646 180.159 30.2659 180.439 30.7699C180.719 31.2739 180.859 31.8292 180.859 32.4359C180.859 32.5292 180.854 32.6319 180.845 32.7439C180.845 32.8466 180.84 32.9632 180.831 33.0939H175.427C175.474 33.7659 175.693 34.2792 176.085 34.6339C176.486 34.9792 176.948 35.1519 177.471 35.1519C177.891 35.1519 178.241 35.0586 178.521 34.8719C178.81 34.6759 179.025 34.4146 179.165 34.0879H180.649C180.462 34.7412 180.089 35.2872 179.529 35.7259C178.978 36.1646 178.292 36.3839 177.471 36.3839ZM177.471 30.3219C176.976 30.3219 176.538 30.4712 176.155 30.7699C175.772 31.0592 175.539 31.4979 175.455 32.0859H179.375C179.347 31.5446 179.156 31.1152 178.801 30.7979C178.446 30.4806 178.003 30.3219 177.471 30.3219ZM184.807 36.3839C184.125 36.3839 183.519 36.2346 182.987 35.9359C182.464 35.6279 182.053 35.2032 181.755 34.6619C181.456 34.1206 181.307 33.4906 181.307 32.7719C181.307 32.0439 181.451 31.4046 181.741 30.8539C182.039 30.3032 182.45 29.8739 182.973 29.5659C183.505 29.2579 184.121 29.1039 184.821 29.1039C185.502 29.1039 186.095 29.2579 186.599 29.5659C187.103 29.8646 187.495 30.2659 187.775 30.7699C188.055 31.2739 188.195 31.8292 188.195 32.4359C188.195 32.5292 188.19 32.6319 188.181 32.7439C188.181 32.8466 188.176 32.9632 188.167 33.0939H182.763C182.809 33.7659 183.029 34.2792 183.421 34.6339C183.822 34.9792 184.284 35.1519 184.807 35.1519C185.227 35.1519 185.577 35.0586 185.857 34.8719C186.146 34.6759 186.361 34.4146 186.501 34.0879H187.985C187.798 34.7412 187.425 35.2872 186.865 35.7259C186.314 36.1646 185.628 36.3839 184.807 36.3839ZM184.807 30.3219C184.312 30.3219 183.873 30.4712 183.491 30.7699C183.108 31.0592 182.875 31.4979 182.791 32.0859H186.711C186.683 31.5446 186.491 31.1152 186.137 30.7979C185.782 30.4806 185.339 30.3219 184.807 30.3219ZM188.895 36.2159V26.1359H190.379V32.1419L193.039 29.2719H194.817L191.863 32.4219L195.251 36.2159H193.375L190.379 32.6599V36.2159H188.895ZM196.624 36.2159V28.0959L195.042 28.4599V27.3679L197.212 26.4159H198.164V36.2159H196.624Z" fill="white"/>
</g>
<path d="M224 50.7159H16V169.716H224V50.7159Z" fill="white"/>
<path d="M44 68.9659C42.0716 68.9659 40.1866 69.5377 38.5832 70.6091C36.9798 71.6804 35.7301 73.2032 34.9922 74.9847C34.2542 76.7663 34.0611 78.7267 34.4373 80.618C34.8136 82.5093 35.7422 84.2466 37.1057 85.6102C38.4693 86.9738 40.2066 87.9024 42.0979 88.2786C43.9892 88.6548 45.9496 88.4617 47.7312 87.7237C49.5127 86.9858 51.0355 85.7361 52.1068 84.1327C53.1782 82.5293 53.75 80.6443 53.75 78.7159C53.7473 76.1309 52.7192 73.6525 50.8913 71.8246C49.0634 69.9967 46.585 68.9686 44 68.9659ZM48.2806 76.9965L43.0306 82.2465C42.961 82.3163 42.8783 82.3716 42.7872 82.4093C42.6962 82.4471 42.5986 82.4665 42.5 82.4665C42.4014 82.4665 42.3038 82.4471 42.2128 82.4093C42.1218 82.3716 42.039 82.3163 41.9694 82.2465L39.7194 79.9965C39.5786 79.8558 39.4996 79.6649 39.4996 79.4659C39.4996 79.2669 39.5786 79.076 39.7194 78.9353C39.8601 78.7945 40.051 78.7155 40.25 78.7155C40.449 78.7155 40.6399 78.7945 40.7806 78.9353L42.5 80.6556L47.2194 75.9353C47.2891 75.8656 47.3718 75.8103 47.4628 75.7726C47.5539 75.7349 47.6515 75.7155 47.75 75.7155C47.8486 75.7155 47.9461 75.7349 48.0372 75.7726C48.1282 75.8103 48.2109 75.8656 48.2806 75.9353C48.3503 76.005 48.4056 76.0877 48.4433 76.1787C48.481 76.2698 48.5004 76.3674 48.5004 76.4659C48.5004 76.5644 48.481 76.662 48.4433 76.7531C48.4056 76.8441 48.3503 76.9268 48.2806 76.9965Z" fill="#7551DC"/>
<path d="M94.6672 68.9659C92.7392 68.9659 90.8542 69.5377 89.2502 70.6091C87.6472 71.6804 86.3972 73.2032 85.6592 74.9847C84.9212 76.7663 84.7282 78.7267 85.1042 80.618C85.4812 82.5093 86.4092 84.2466 87.7732 85.6102C89.1362 86.9738 90.8742 87.9024 92.7652 88.2786C94.6562 88.6548 96.6172 88.4617 98.3982 87.7237C100.18 86.9858 101.702 85.7361 102.774 84.1327C103.845 82.5293 104.417 80.6443 104.417 78.7159C104.414 76.1309 103.386 73.6525 101.558 71.8246C99.7302 69.9967 97.2522 68.9686 94.6672 68.9659ZM98.9482 76.9965L93.6982 82.2465C93.6282 82.3163 93.5452 82.3716 93.4542 82.4093C93.3632 82.4471 93.2662 82.4665 93.1672 82.4665C93.0682 82.4665 92.9712 82.4471 92.8802 82.4093C92.7892 82.3716 92.7062 82.3163 92.6362 82.2465L90.3862 79.9965C90.2462 79.8558 90.1672 79.6649 90.1672 79.4659C90.1672 79.2669 90.2462 79.076 90.3862 78.9353C90.5272 78.7945 90.7182 78.7155 90.9172 78.7155C91.1162 78.7155 91.3072 78.7945 91.4482 78.9353L93.1672 80.6556L97.8862 75.9353C97.9562 75.8656 98.0392 75.8103 98.1302 75.7726C98.2212 75.7349 98.3182 75.7155 98.4172 75.7155C98.5162 75.7155 98.6132 75.7349 98.7042 75.7726C98.7952 75.8103 98.8782 75.8656 98.9482 75.9353C99.0172 76.005 99.0732 76.0877 99.1102 76.1787C99.1482 76.2698 99.1672 76.3674 99.1672 76.4659C99.1672 76.5644 99.1482 76.662 99.1102 76.7531C99.0732 76.8441 99.0172 76.9268 98.9482 76.9965Z" fill="#7551DC"/>
<path d="M145.333 68.9659C143.405 68.9659 141.52 69.5377 139.916 70.6091C138.313 71.6804 137.063 73.2032 136.325 74.9847C135.587 76.7663 135.394 78.7267 135.77 80.618C136.147 82.5093 137.075 84.2466 138.439 85.6102C139.802 86.9738 141.54 87.9024 143.431 88.2786C145.322 88.6548 147.283 88.4617 149.064 87.7237C150.846 86.9858 152.368 85.7361 153.44 84.1327C154.511 82.5293 155.083 80.6443 155.083 78.7159C155.08 76.1309 154.052 73.6525 152.224 71.8246C150.396 69.9967 147.918 68.9686 145.333 68.9659ZM149.614 76.9965L144.364 82.2465C144.294 82.3163 144.211 82.3716 144.12 82.4093C144.029 82.4471 143.932 82.4665 143.833 82.4665C143.734 82.4665 143.637 82.4471 143.546 82.4093C143.455 82.3716 143.372 82.3163 143.302 82.2465L141.052 79.9965C140.912 79.8558 140.833 79.6649 140.833 79.4659C140.833 79.2669 140.912 79.076 141.052 78.9353C141.193 78.7945 141.384 78.7155 141.583 78.7155C141.782 78.7155 141.973 78.7945 142.114 78.9353L143.833 80.6556L148.552 75.9353C148.622 75.8656 148.705 75.8103 148.796 75.7726C148.887 75.7349 148.984 75.7155 149.083 75.7155C149.182 75.7155 149.279 75.7349 149.37 75.7726C149.461 75.8103 149.544 75.8656 149.614 75.9353C149.683 76.005 149.739 76.0877 149.776 76.1787C149.814 76.2698 149.833 76.3674 149.833 76.4659C149.833 76.5644 149.814 76.662 149.776 76.7531C149.739 76.8441 149.683 76.9268 149.614 76.9965Z" fill="#7551DC"/>
<path d="M196 68.9659C194.072 68.9659 192.187 69.5377 190.583 70.6091C188.98 71.6804 187.73 73.2032 186.992 74.9847C186.254 76.7663 186.061 78.7267 186.437 80.618C186.814 82.5093 187.742 84.2466 189.106 85.6102C190.469 86.9738 192.207 87.9024 194.098 88.2786C195.989 88.6548 197.95 88.4617 199.731 87.7237C201.513 86.9858 203.035 85.7361 204.107 84.1327C205.178 82.5293 205.75 80.6443 205.75 78.7159C205.747 76.1309 204.719 73.6525 202.891 71.8246C201.063 69.9967 198.585 68.9686 196 68.9659ZM200.281 76.9965L195.031 82.2465C194.961 82.3163 194.878 82.3716 194.787 82.4093C194.696 82.4471 194.599 82.4665 194.5 82.4665C194.401 82.4665 194.304 82.4471 194.213 82.4093C194.122 82.3716 194.039 82.3163 193.969 82.2465L191.719 79.9965C191.579 79.8558 191.5 79.6649 191.5 79.4659C191.5 79.2669 191.579 79.076 191.719 78.9353C191.86 78.7945 192.051 78.7155 192.25 78.7155C192.449 78.7155 192.64 78.7945 192.781 78.9353L194.5 80.6556L199.219 75.9353C199.289 75.8656 199.372 75.8103 199.463 75.7726C199.554 75.7349 199.651 75.7155 199.75 75.7155C199.849 75.7155 199.946 75.7349 200.037 75.7726C200.128 75.8103 200.211 75.8656 200.281 75.9353C200.35 76.005 200.406 76.0877 200.443 76.1787C200.481 76.2698 200.5 76.3674 200.5 76.4659C200.5 76.5644 200.481 76.662 200.443 76.7531C200.406 76.8441 200.35 76.9268 200.281 76.9965Z" fill="#7551DC"/>
<path d="M51 106.716H36C33.7909 106.716 32 108.507 32 110.716V125.716C32 127.925 33.7909 129.716 36 129.716H51C53.2091 129.716 55 127.925 55 125.716V110.716C55 108.507 53.2091 106.716 51 106.716Z" fill="#FCEBD1"/>
<path d="M102 106.716H87C84.7909 106.716 83 108.507 83 110.716V125.716C83 127.925 84.7909 129.716 87 129.716H102C104.209 129.716 106 127.925 106 125.716V110.716C106 108.507 104.209 106.716 102 106.716Z" fill="#FCEBD1"/>
<path d="M153 106.716H138C135.791 106.716 134 108.507 134 110.716V125.716C134 127.925 135.791 129.716 138 129.716H153C155.209 129.716 157 127.925 157 125.716V110.716C157 108.507 155.209 106.716 153 106.716Z" fill="#FCEBD1"/>
<path d="M204 106.716H189C186.791 106.716 185 108.507 185 110.716V125.716C185 127.925 186.791 129.716 189 129.716H204C206.209 129.716 208 127.925 208 125.716V110.716C208 108.507 206.209 106.716 204 106.716Z" fill="#FCEBD1"/>
<path d="M51 145.716H36C33.7909 145.716 32 147.507 32 149.716V164.716C32 166.925 33.7909 168.716 36 168.716H51C53.2091 168.716 55 166.925 55 164.716V149.716C55 147.507 53.2091 145.716 51 145.716Z" fill="#FCEBD1"/>
<path d="M102 145.716H87C84.7909 145.716 83 147.507 83 149.716V164.716C83 166.925 84.7909 168.716 87 168.716H102C104.209 168.716 106 166.925 106 164.716V149.716C106 147.507 104.209 145.716 102 145.716Z" fill="#FCEBD1"/>
<path d="M153 145.716H138C135.791 145.716 134 147.507 134 149.716V164.716C134 166.925 135.791 168.716 138 168.716H153C155.209 168.716 157 166.925 157 164.716V149.716C157 147.507 155.209 145.716 153 145.716Z" fill="#FCEBD1"/>
<path d="M204 145.716H189C186.791 145.716 185 147.507 185 149.716V164.716C185 166.925 186.791 168.716 189 168.716H204C206.209 168.716 208 166.925 208 164.716V149.716C208 147.507 206.209 145.716 204 145.716Z" fill="#FCEBD1"/>
<defs>
<filter id="filter0_d_2051_34" x="-18.2351" y="9.53674e-07" width="256.907" height="86.9072" filterUnits="userSpaceOnUse" color-interpolation-filters="sRGB">
<feFlood flood-opacity="0" result="BackgroundImageFix"/>
<feColorMatrix in="SourceAlpha" type="matrix" values="0 0 0 0 0 0 0 0 0 0 0 0 0 0 0 0 0 0 127 0" result="hardAlpha"/>
<feOffset dx="-9.78145" dy="11.7377"/>
<feGaussianBlur stdDeviation="12.2268"/>
<feComposite in2="hardAlpha" operator="out"/>
<feColorMatrix type="matrix" values="0 0 0 0 0.384371 0 0 0 0 0.102708 0 0 0 0 0.483333 0 0 0 0.05 0"/>
<feBlend mode="normal" in2="BackgroundImageFix" result="effect1_dropShadow_2051_34"/>
<feBlend mode="normal" in="SourceGraphic" in2="effect1_dropShadow_2051_34" result="shape"/>
</filter>
</defs>
</svg>
